<?xml version="1.0" standalone="no"?>
<!DOCTYPE svg PUBLIC "-//W3C//DTD SVG 20010904//EN"
 "http://www.w3.org/TR/2001/REC-SVG-20010904/DTD/svg10.dtd">
<svg version="1.0" xmlns="http://www.w3.org/2000/svg"
 width="35" height="35" viewBox="0 0 300.000000 225.000000"
 preserveAspectRatio="xMidYMid meet">

<g transform="translate(0.000000,225.000000) scale(0.100000,-0.100000)"
fill="#000000" stroke="none">
<path d="M1180 2034 c-100 -27 -187 -102 -233 -202 -29 -63 -31 -214 -4 -284
10 -27 23 -48 27 -48 5 0 -1 21 -13 48 -33 72 -31 207 4 283 51 108 136 175
252 199 119 24 229 -24 374 -164 29 -27 55 -47 58 -44 9 9 -128 130 -190 167
-60 36 -139 61 -190 60 -16 0 -55 -7 -85 -15z"/>
<path d="M1635 2041 c-16 -4 -46 -16 -65 -25 -38 -18 -22 -15 65 11 93 27 226
-4 308 -73 83 -70 135 -192 122 -290 -10 -83 -57 -164 -150 -261 -46 -48 -82
-89 -81 -91 8 -7 146 138 180 190 69 103 81 191 44 304 -44 135 -173 231 -319
239 -41 2 -87 1 -104 -4z"/>
<path d="M1665 1981 c-38 -10 -75 -29 -75 -40 0 -4 11 -18 24 -30 20 -19 28
-21 45 -11 12 6 45 11 74 11 64 1 120 -24 164 -75 70 -79 68 -174 -5 -310 -3
-5 1 -6 8 -1 7 4 25 8 39 9 67 3 103 200 53 293 -29 55 -83 106 -138 132 -49
24 -143 34 -189 22z"/>
<path d="M1145 1957 c-132 -63 -196 -207 -156 -350 8 -26 18 -50 23 -53 6 -4
21 5 35 19 23 23 25 28 14 58 -28 80 -3 168 67 231 73 66 170 66 279 0 68 -41
104 -50 131 -33 19 11 -64 82 -137 118 -80 40 -186 44 -256 10z"/>
<path d="M1216 1823 c-3 -4 -6 -42 -6 -86 l0 -80 37 6 c33 6 42 2 69 -24 48
-47 65 -26 19 21 -28 29 -36 44 -32 61 9 35 -17 85 -51 97 -17 6 -33 8 -36 5z"/>
<path d="M1762 1788 c-7 -7 -12 -26 -12 -42 0 -23 -11 -41 -40 -70 -22 -21
-40 -43 -40 -49 0 -6 20 9 45 33 34 34 52 44 71 42 33 -5 54 14 54 49 0 41
-50 65 -78 37z"/>
<path d="M1480 1655 c0 -21 -27 -30 -45 -15 -19 15 -50 -6 -50 -35 0 -14 -8
-21 -27 -23 -30 -4 -44 -28 -27 -48 14 -17 5 -44 -16 -44 -9 0 -15 -9 -15 -25
0 -15 6 -25 14 -25 19 0 29 -29 15 -46 -15 -19 4 -48 33 -49 17 0 23 -6 23
-23 1 -29 30 -48 49 -33 17 14 46 4 46 -15 0 -8 10 -14 25 -14 15 0 25 6 25
14 0 18 29 29 45 16 19 -16 43 -1 47 28 2 21 9 27 26 27 30 1 48 30 32 50 -15
18 -6 45 15 45 9 0 15 9 15 25 0 16 -6 25 -15 25 -21 0 -30 27 -15 45 16 19
-1 42 -33 47 -14 2 -22 10 -22 23 0 29 -31 50 -50 35 -18 -15 -45 -6 -45 15 0
9 -9 15 -25 15 -16 0 -25 -6 -25 -15z m87 -64 c144 -66 77 -289 -80 -268 -141
19 -172 200 -47 265 53 27 73 27 127 3z"/>
<path d="M1475 1583 c-68 -17 -107 -90 -85 -157 42 -127 235 -99 235 35 0 43
-20 83 -49 103 -26 16 -74 26 -101 19z m40 -23 c4 -6 12 -9 18 -8 14 3 63 -43
59 -56 -1 -4 3 -15 10 -23 9 -11 9 -16 0 -22 -7 -4 -10 -15 -6 -25 5 -12 1
-19 -15 -23 -11 -3 -21 -12 -21 -20 0 -10 -6 -12 -20 -8 -11 4 -20 2 -20 -4 0
-6 -7 -11 -15 -11 -8 0 -15 5 -15 11 0 6 -9 8 -20 4 -15 -5 -22 -1 -28 15 -4
12 -12 22 -17 23 -6 1 -9 10 -8 20 2 9 -2 17 -7 17 -6 0 -10 7 -10 15 0 8 5
15 11 15 6 0 8 9 4 20 -4 14 -2 20 9 20 8 0 20 9 26 20 6 11 16 17 25 14 8 -4
15 -1 15 5 0 14 17 14 25 1z"/>
<path d="M1072 1540 c-125 -127 -171 -236 -152 -358 24 -146 138 -260 293
-292 32 -6 77 -9 100 -5 53 8 140 35 133 42 -2 3 -28 -3 -57 -12 -176 -59
-375 34 -440 205 -23 61 -25 159 -4 221 19 54 96 158 165 223 28 26 49 50 47
53 -3 2 -41 -33 -85 -77z"/>
<path d="M1082 1470 c-18 -21 -47 -67 -65 -102 -28 -55 -32 -73 -32 -143 0
-90 14 -126 74 -188 53 -57 104 -79 189 -85 54 -3 84 0 118 13 l45 17 -21 23
c-20 21 -27 22 -104 18 -70 -5 -88 -2 -123 15 -122 63 -154 209 -72 331 40 58
50 87 43 117 -8 31 -13 30 -52 -16z"/>
<path d="M2042 1383 c32 -73 35 -166 8 -249 -31 -91 -116 -181 -203 -213 -143
-52 -266 -13 -426 134 -61 57 -93 75 -50 29 41 -46 164 -140 212 -163 175 -85
379 -7 465 177 23 49 27 70 27 147 0 87 -24 185 -46 185 -4 0 2 -21 13 -47z"/>
<path d="M1951 1356 c-21 -22 -21 -27 -11 -67 36 -133 -65 -269 -200 -269 -46
0 -64 -10 -41 -24 5 -3 7 -15 4 -26 -5 -17 0 -20 34 -20 190 0 324 185 269
373 -9 31 -20 57 -25 57 -4 0 -18 -11 -30 -24z"/>
<path d="M1656 1312 c-3 -5 8 -22 25 -38 27 -25 29 -33 23 -71 -5 -36 -3 -45
19 -67 57 -57 147 -23 147 54 0 55 -35 84 -94 78 -40 -5 -48 -2 -72 23 -29 30
-39 35 -48 21z"/>
<path d="M1285 1255 c-28 -24 -50 -34 -73 -35 -55 0 -73 -72 -20 -81 49 -9 68
0 68 34 0 23 11 42 42 74 50 51 39 57 -17 8z"/>
<path d="M150 495 c0 -88 1 -95 20 -95 17 0 20 7 20 40 0 22 2 40 5 40 3 0 30
-18 60 -41 42 -32 61 -40 87 -37 l33 3 -68 48 c-37 26 -67 49 -67 51 0 1 25
20 55 41 30 20 55 39 55 41 0 2 -13 4 -29 4 -17 0 -46 -14 -74 -35 -25 -19
-48 -35 -51 -35 -3 0 -6 16 -6 35 0 28 -4 35 -20 35 -19 0 -20 -7 -20 -95z"/>
<path d="M420 495 l0 -95 89 0 c102 0 128 13 116 59 -3 14 -7 49 -8 76 l-2 50
-97 3 -98 3 0 -96z m160 45 c0 -18 -7 -20 -60 -20 -53 0 -60 2 -60 20 0 18 7
20 60 20 53 0 60 -2 60 -20z m0 -65 c20 -24 2 -35 -61 -35 -51 0 -59 3 -59 18
0 28 9 32 60 32 29 0 52 -6 60 -15z"/>
<path d="M763 578 c-14 -18 -93 -164 -93 -172 0 -3 9 -6 20 -6 11 0 20 4 20 9
0 24 34 41 80 41 46 0 80 -17 80 -41 0 -5 11 -9 25 -9 14 0 25 2 25 4 0 3 -23
45 -52 95 -40 71 -56 91 -74 91 -12 0 -26 -6 -31 -12z m46 -96 c-10 -2 -28 -2
-39 0 -20 3 -20 3 1 38 l21 34 18 -34 c18 -34 18 -35 -1 -38z"/>
<path d="M960 495 c0 -95 0 -95 25 -95 23 0 25 4 25 40 l0 40 70 0 70 0 0 -40
c0 -33 3 -40 20 -40 19 0 20 7 20 95 0 88 -1 95 -20 95 -16 0 -20 -7 -20 -35
l0 -35 -70 0 -70 0 0 35 c0 31 -3 35 -25 35 -25 0 -25 0 -25 -95z"/>
<path d="M1230 575 c0 -11 12 -15 45 -15 l45 0 0 -80 c0 -73 2 -80 20 -80 18
0 20 7 20 80 l0 80 45 0 c33 0 45 4 45 15 0 12 -19 15 -110 15 -91 0 -110 -3
-110 -15z"/>
<path d="M1497 584 c-4 -4 -7 -44 -7 -90 0 -97 -3 -94 114 -94 112 0 118 5
114 105 l-3 80 -106 3 c-58 1 -108 -1 -112 -4z m178 -84 l0 -55 -72 -3 -73 -3
0 61 0 61 73 -3 72 -3 0 -55z"/>
<path d="M1780 495 c0 -87 2 -95 19 -95 16 0 20 8 23 38 l3 37 75 5 75 5 0 50
0 50 -97 3 -98 3 0 -96z m160 40 c0 -24 -3 -25 -60 -25 -57 0 -60 1 -60 25 0
24 3 25 60 25 57 0 60 -1 60 -25z"/>
<path d="M2040 495 c0 -75 3 -95 14 -95 8 0 49 29 92 65 l79 66 3 -66 c2 -56
6 -66 20 -63 14 3 17 18 20 96 3 88 2 92 -19 92 -11 0 -53 -28 -93 -62 l-71
-61 -3 61 c-3 54 -6 62 -22 62 -18 0 -20 -7 -20 -95z"/>
<path d="M2330 542 c0 -26 5 -53 12 -60 7 -7 42 -12 85 -12 58 0 73 -3 73 -15
0 -12 -16 -15 -85 -15 -78 0 -85 -2 -85 -20 0 -19 7 -20 91 -20 127 0 129 2
129 105 0 84 0 85 -25 85 -23 0 -25 -4 -25 -45 l0 -45 -60 0 -60 0 0 45 c0 41
-2 45 -25 45 -23 0 -25 -3 -25 -48z"/>
<path d="M2610 495 c0 -78 3 -95 15 -95 12 0 15 14 15 66 l0 67 41 -52 c22
-28 44 -51 48 -51 4 0 23 21 42 48 l34 47 3 -62 c3 -55 6 -63 22 -63 18 0 20
7 20 95 0 85 -2 95 -18 95 -10 0 -35 -22 -55 -50 -21 -27 -41 -50 -46 -50 -5
0 -27 22 -48 50 -21 27 -46 49 -55 50 -16 0 -18 -11 -18 -95z"/>
</g>
</svg>
